Genre:Comedy | Romance | Sci-Fi
Language:English 
http://www.imdb.com/title/tt1747924/
Source:HDTV Thanks!

Format : MPEG-4
Format profile : Base Media
Codec ID : isom
File size : 1.17 GiB
Duration : 1h 15mn
Overall bit rate : 2 239 Kbps

Video
ID : 1
Format : AVC
Format/Info : Advanced Video Codec
Format profile : High@L5.1
Format settings, CABAC : Yes
Format settings, ReFrames : 3 frames
Codec ID : avc1
Codec ID/Info : Advanced Video Coding
Duration : 1h 15mn
Bit rate mode : Variable
Bit rate : 2 000 Kbps
Maximum bit rate : 10.9 Mbps
Width : 640 pixels
Height : 360 pixels
Display aspect ratio : 16:9
Frame rate mode : Constant
Frame rate : 23.976 fps
Color space : YUV
Chroma subsampling : 4:2:0
Bit depth : 8 bits
Scan type : Progressive
Bits/(Pixel*Frame) : 0.362
Stream size : 1.05 GiB (90%)
Writing library : x264

Audio
ID : 2
Format : AAC
Format/Info : Advanced Audio Codec
Format version : Version 4
Format profile : LC
Format settings, SBR : No
Codec ID : 40
Duration : 1h 15mn
Bit rate mode : Variable
Bit rate : 224 Kbps
Maximum bit rate : 314 Kbps
Channel(s) : 2 channels
Channel positions : Front: L R
Sampling rate : 48.0 KHz
Stream size : 120 MiB (10%)


Plot:
An archaeologist (Barry Watson) from 1000 years in the future uncovers a romance novel written in our time..
 
http://img163.imageshack.us/img163/9307/vlcsnap00001ln.png
 
http://img851.imageshack.us/img851/9232/vlcsnap00002mp.png
 
http://img510.imageshack.us/img510/6640/vlcsnap00003r.png
 
http://img10.imageshack.us/img10/435/vlcsnap00004qp.png

